<svg width="30" height="31" viewBox="0 0 30 31" fill="none" xmlns="http://www.w3.org/2000/svg">
<path d="M24.6344 5.86558C24.5183 5.74935 24.3804 5.65716 24.2287 5.59425C24.0769 5.53135 23.9143 5.49897 23.75 5.49897C23.5857 5.49897 23.4231 5.53135 23.2713 5.59425C23.1196 5.65716 22.9817 5.74935 22.8656 5.86558L18.2328 10.5H11.7672L7.13438 5.86558C6.89983 5.63102 6.58171 5.49926 6.25 5.49926C5.9183 5.49926 5.60018 5.63103 5.36563 5.86558C5.13108 6.10013 4.99931 6.41825 4.99931 6.74995C4.99931 7.08166 5.13107 7.39978 5.36562 7.63433L10 12.2671V18.7328L5.36562 23.3656C5.13107 23.6001 4.99931 23.9182 4.99931 24.25C4.99931 24.5817 5.13107 24.8998 5.36562 25.1343C5.60018 25.3689 5.9183 25.5006 6.25 25.5006C6.58171 25.5006 6.89983 25.3689 7.13438 25.1343L11.7672 20.5H18.2328L22.8656 25.1343C22.9818 25.2505 23.1196 25.3426 23.2714 25.4054C23.4231 25.4683 23.5858 25.5006 23.75 25.5006C23.9142 25.5006 24.0769 25.4683 24.2286 25.4054C24.3804 25.3426 24.5182 25.2505 24.6344 25.1343C24.7505 25.0182 24.8426 24.8803 24.9055 24.7286C24.9683 24.5768 25.0007 24.4142 25.0007 24.25C25.0007 24.0857 24.9683 23.9231 24.9055 23.7713C24.8426 23.6196 24.7505 23.4817 24.6344 23.3656L20 18.7328V12.2671L24.6344 7.63433C24.7506 7.51824 24.8428 7.38037 24.9057 7.22863C24.9686 7.07688 25.001 6.91422 25.001 6.74995C25.001 6.58568 24.9686 6.42302 24.9057 6.27128C24.8428 6.11953 24.7506 5.98167 24.6344 5.86558ZM12.5 13H17.5V18H12.5V13ZM16.6422 5.08276C17.0296 3.98816 17.688 3.00953 18.5559 2.23814C19.4238 1.46675 20.4729 0.927752 21.6054 0.671411C22.7379 0.415069 23.9169 0.449742 25.0324 0.772193C26.1478 1.09464 27.1635 1.69437 27.9845 2.51542C28.8056 3.33648 29.4053 4.35212 29.7278 5.46759C30.0502 6.58307 30.0849 7.76205 29.8285 8.89454C29.5722 10.027 29.0332 11.0762 28.2618 11.9441C27.4904 12.8119 26.5118 13.4703 25.4172 13.8578C25.2838 13.9084 25.1426 13.9353 25 13.9375C24.7053 13.9373 24.4201 13.833 24.1948 13.6431C23.9695 13.4531 23.8185 13.1896 23.7686 12.8991C23.7187 12.6087 23.773 12.3099 23.922 12.0556C24.071 11.8013 24.305 11.6078 24.5828 11.5093C25.2793 11.2627 25.902 10.8437 26.3928 10.2914C26.8836 9.7391 27.2266 9.07149 27.3896 8.35084C27.5527 7.63019 27.5306 6.87998 27.3254 6.17017C27.1202 5.46036 26.7386 4.81409 26.2161 4.29163C25.6937 3.76917 25.0474 3.38754 24.3376 3.18233C23.6278 2.97713 22.8776 2.95504 22.1569 3.11811C21.4363 3.28119 20.7687 3.62413 20.2164 4.11494C19.6641 4.60576 19.2451 5.22845 18.9984 5.92495C18.9458 6.08236 18.8623 6.22771 18.7528 6.3525C18.6434 6.4773 18.5102 6.57905 18.361 6.65182C18.2118 6.72458 18.0496 6.76691 17.8839 6.77632C17.7182 6.78573 17.5522 6.76204 17.3958 6.70663C17.2393 6.65123 17.0954 6.56521 16.9726 6.45361C16.8497 6.342 16.7503 6.20705 16.6801 6.05661C16.61 5.90617 16.5705 5.74327 16.564 5.57741C16.5575 5.41155 16.5841 5.24605 16.6422 5.09058V5.08276ZM30 23.625C30.0008 25.2473 29.4278 26.8176 28.3825 28.0583C27.3371 29.2989 25.8867 30.1299 24.2877 30.4043C22.6888 30.6786 21.0443 30.3787 19.6452 29.5576C18.246 28.7364 17.1823 27.4469 16.6422 25.9171C16.5382 25.6063 16.5604 25.2671 16.7041 24.9725C16.8478 24.678 17.1014 24.4516 17.4103 24.3422C17.7193 24.2328 18.0588 24.2491 18.3559 24.3876C18.6529 24.5261 18.8837 24.7758 18.9984 25.0828C19.2451 25.7793 19.6641 26.402 20.2164 26.8928C20.7687 27.3836 21.4363 27.7265 22.1569 27.8896C22.8776 28.0527 23.6278 28.0306 24.3376 27.8254C25.0474 27.6202 25.6937 27.2385 26.2161 26.7161C26.7386 26.1936 27.1202 25.5473 27.3254 24.8375C27.5306 24.1277 27.5527 23.3775 27.3896 22.6569C27.2266 21.9362 26.8836 21.2686 26.3928 20.7163C25.902 20.164 25.2793 19.745 24.5828 19.4984C24.2758 19.3836 24.0262 19.1529 23.8877 18.8558C23.7492 18.5588 23.7329 18.2192 23.8423 17.9103C23.9517 17.6014 24.178 17.3477 24.4726 17.2041C24.7672 17.0604 25.1064 17.0381 25.4172 17.1421C26.7568 17.6176 27.9164 18.4959 28.7369 19.6566C29.5574 20.8173 29.9986 22.2035 30 23.625ZM13.3578 25.9171C12.9704 27.0117 12.312 27.9904 11.4441 28.7618C10.5762 29.5331 9.52709 30.0721 8.3946 30.3285C7.2621 30.5848 6.08312 30.5502 4.96764 30.2277C3.85217 29.9053 2.83653 29.3055 2.01547 28.4845C1.19442 27.6634 0.594695 26.6478 0.272243 25.5323C-0.0502081 24.4168 -0.0848804 23.2379 0.171461 22.1054C0.427802 20.9729 0.966805 19.9237 1.73819 19.0558C2.50958 18.188 3.48821 17.5296 4.58281 17.1421C4.89362 17.0381 5.23283 17.0604 5.52741 17.2041C5.82198 17.3477 6.04834 17.6014 6.15774 17.9103C6.26714 18.2192 6.25083 18.5588 6.11232 18.8558C5.9738 19.1529 5.72417 19.3836 5.41719 19.4984C4.72069 19.745 4.09799 20.164 3.60718 20.7163C3.11637 21.2686 2.77343 21.9362 2.61035 22.6569C2.44727 23.3775 2.46937 24.1277 2.67457 24.8375C2.87977 25.5473 3.2614 26.1936 3.78387 26.7161C4.30633 27.2385 4.9526 27.6202 5.66241 27.8254C6.37221 28.0306 7.12243 28.0527 7.84308 27.8896C8.56373 27.7265 9.23134 27.3836 9.78364 26.8928C10.3359 26.402 10.7549 25.7793 11.0016 25.0828C11.1163 24.7758 11.3471 24.5261 11.6441 24.3876C11.9412 24.2491 12.2807 24.2328 12.5897 24.3422C12.8986 24.4516 13.1522 24.678 13.2959 24.9725C13.4396 25.2671 13.4618 25.6063 13.3578 25.9171ZM8.19131e-07 7.37495C-0.000790761 5.75262 0.572157 4.18228 1.61752 2.94164C2.66288 1.70101 4.11329 0.870016 5.71225 0.595636C7.31121 0.321256 8.95569 0.621165 10.3549 1.44232C11.754 2.26348 12.8177 3.55298 13.3578 5.08276C13.4159 5.23824 13.4425 5.40374 13.436 5.5696C13.4295 5.73546 13.39 5.89836 13.3199 6.0488C13.2497 6.19923 13.1503 6.33419 13.0274 6.4458C12.9046 6.5574 12.7607 6.64342 12.6042 6.69882C12.4478 6.75423 12.2818 6.77792 12.1161 6.76851C11.9504 6.7591 11.7882 6.71677 11.639 6.64401C11.4898 6.57124 11.3566 6.46949 11.2472 6.34469C11.1377 6.2199 11.0542 6.07455 11.0016 5.91714C10.7549 5.22064 10.3359 4.59794 9.78364 4.10713C9.23134 3.61632 8.56373 3.27338 7.84308 3.1103C7.12243 2.94722 6.37221 2.96932 5.66241 3.17452C4.9526 3.37972 4.30633 3.76135 3.78387 4.28382C3.2614 4.80628 2.87977 5.45255 2.67457 6.16236C2.46937 6.87216 2.44727 7.62238 2.61035 8.34303C2.77343 9.06368 3.11637 9.73129 3.60718 10.2836C4.09799 10.8359 4.72069 11.2549 5.41719 11.5015C5.70077 11.5958 5.94119 11.7886 6.09486 12.0449C6.24853 12.3012 6.30529 12.6041 6.25484 12.8987C6.20439 13.1932 6.05008 13.46 5.81987 13.6505C5.58967 13.8411 5.2988 13.9429 5 13.9375C4.85783 13.9378 4.71667 13.9135 4.58281 13.8656C3.24198 13.3897 2.08147 12.5102 1.26084 11.3479C0.440203 10.1857 -0.000261227 8.79773 8.19131e-07 7.37495Z" fill="#45BDF0"/>
</svg>
