<svg width="28" height="36" viewBox="0 0 28 36" fill="none" xmlns="http://www.w3.org/2000/svg">
<path d="M21.1875 6.96095C19.2575 4.73195 17.0852 2.72479 14.7109 0.976578C14.5008 0.829345 14.2504 0.750366 13.9937 0.750366C13.7371 0.750366 13.4867 0.829345 13.2766 0.976578C10.9066 2.72551 8.73862 4.73265 6.8125 6.96095C2.51719 11.8938 0.25 17.0938 0.25 22C0.25 25.6467 1.69866 29.1441 4.27728 31.7227C6.85591 34.3014 10.3533 35.75 14 35.75C17.6467 35.75 21.1441 34.3014 23.7227 31.7227C26.3013 29.1441 27.75 25.6467 27.75 22C27.75 17.0938 25.4828 11.8938 21.1875 6.96095ZM14 33.25C11.0173 33.2467 8.15777 32.0604 6.0487 29.9513C3.93964 27.8422 2.75331 24.9827 2.75 22C2.75 13.0578 11.4172 5.59377 14 3.56252C16.5828 5.59377 25.25 13.0547 25.25 22C25.2467 24.9827 24.0604 27.8422 21.9513 29.9513C19.8422 32.0604 16.9827 33.2467 14 33.25ZM22.7328 23.4594C22.4087 25.2699 21.5376 26.9376 20.2369 28.238C18.9363 29.5384 17.2684 30.4091 15.4578 30.7328C15.3891 30.7438 15.3196 30.7496 15.25 30.75C14.9364 30.7499 14.6344 30.632 14.4037 30.4196C14.173 30.2073 14.0306 29.916 14.0046 29.6035C13.9787 29.291 14.0711 28.9802 14.2636 28.7327C14.456 28.4852 14.7345 28.319 15.0437 28.2672C17.6328 27.8313 19.8297 25.6344 20.2687 23.0406C20.3243 22.7137 20.5074 22.4222 20.7779 22.2302C21.0483 22.0383 21.384 21.9617 21.7109 22.0172C22.0379 22.0727 22.3294 22.2559 22.5213 22.5263C22.7133 22.7968 22.7899 23.1324 22.7344 23.4594H22.7328Z" fill="#45BDF0"/>
</svg>
