<svg width="38" height="31" viewBox="0 0 38 31" fill="none" xmlns="http://www.w3.org/2000/svg">
<path d="M36.75 28H34.25V10.5C34.5815 10.5 34.8995 10.3683 35.1339 10.1339C35.3683 9.89946 35.5 9.58152 35.5 9.25C35.5 8.91848 35.3683 8.60054 35.1339 8.36612C34.8995 8.1317 34.5815 8 34.25 8H26.75V3C27.0815 3 27.3995 2.8683 27.6339 2.63388C27.8683 2.39946 28 2.08152 28 1.75C28 1.41848 27.8683 1.10054 27.6339 0.866117C27.3995 0.631696 27.0815 0.5 26.75 0.5H4.25C3.91848 0.5 3.60054 0.631696 3.36612 0.866117C3.1317 1.10054 3 1.41848 3 1.75C3 2.08152 3.1317 2.39946 3.36612 2.63388C3.60054 2.8683 3.91848 3 4.25 3V28H1.75C1.41848 28 1.10054 28.1317 0.866116 28.3661C0.631696 28.6005 0.5 28.9185 0.5 29.25C0.5 29.5815 0.631696 29.8995 0.866116 30.1339C1.10054 30.3683 1.41848 30.5 1.75 30.5H36.75C37.0815 30.5 37.3995 30.3683 37.6339 30.1339C37.8683 29.8995 38 29.5815 38 29.25C38 28.9185 37.8683 28.6005 37.6339 28.3661C37.3995 28.1317 37.0815 28 36.75 28ZM31.75 10.5V28H26.75V10.5H31.75ZM6.75 3H24.25V28H20.5V20.5C20.5 20.1685 20.3683 19.8505 20.1339 19.6161C19.8995 19.3817 19.5815 19.25 19.25 19.25H11.75C11.4185 19.25 11.1005 19.3817 10.8661 19.6161C10.6317 19.8505 10.5 20.1685 10.5 20.5V28H6.75V3ZM18 28H13V21.75H18V28ZM9.25 8C9.25 7.66848 9.3817 7.35054 9.61612 7.11612C9.85054 6.8817 10.1685 6.75 10.5 6.75H13C13.3315 6.75 13.6495 6.8817 13.8839 7.11612C14.1183 7.35054 14.25 7.66848 14.25 8C14.25 8.33152 14.1183 8.64946 13.8839 8.88388C13.6495 9.1183 13.3315 9.25 13 9.25H10.5C10.1685 9.25 9.85054 9.1183 9.61612 8.88388C9.3817 8.64946 9.25 8.33152 9.25 8ZM16.75 8C16.75 7.66848 16.8817 7.35054 17.1161 7.11612C17.3505 6.8817 17.6685 6.75 18 6.75H20.5C20.8315 6.75 21.1495 6.8817 21.3839 7.11612C21.6183 7.35054 21.75 7.66848 21.75 8C21.75 8.33152 21.6183 8.64946 21.3839 8.88388C21.1495 9.1183 20.8315 9.25 20.5 9.25H18C17.6685 9.25 17.3505 9.1183 17.1161 8.88388C16.8817 8.64946 16.75 8.33152 16.75 8ZM9.25 14.25C9.25 13.9185 9.3817 13.6005 9.61612 13.3661C9.85054 13.1317 10.1685 13 10.5 13H13C13.3315 13 13.6495 13.1317 13.8839 13.3661C14.1183 13.6005 14.25 13.9185 14.25 14.25C14.25 14.5815 14.1183 14.8995 13.8839 15.1339C13.6495 15.3683 13.3315 15.5 13 15.5H10.5C10.1685 15.5 9.85054 15.3683 9.61612 15.1339C9.3817 14.8995 9.25 14.5815 9.25 14.25ZM16.75 14.25C16.75 13.9185 16.8817 13.6005 17.1161 13.3661C17.3505 13.1317 17.6685 13 18 13H20.5C20.8315 13 21.1495 13.1317 21.3839 13.3661C21.6183 13.6005 21.75 13.9185 21.75 14.25C21.75 14.5815 21.6183 14.8995 21.3839 15.1339C21.1495 15.3683 20.8315 15.5 20.5 15.5H18C17.6685 15.5 17.3505 15.3683 17.1161 15.1339C16.8817 14.8995 16.75 14.5815 16.75 14.25Z" fill="#45BDF0"/>
</svg>
