<svg width="27" height="26" viewBox="0 0 27 26" fill="none" xmlns="http://www.w3.org/2000/svg">
<path d="M13.1758 0C10.6046 0 8.09121 0.762437 5.95337 2.1909C3.81553 3.61935 2.14929 5.64968 1.16535 8.02512C0.181414 10.4006 -0.0760294 13.0144 0.425578 15.5362C0.927186 18.0579 2.16532 20.3743 3.9834 22.1924C5.80148 24.0105 8.11786 25.2486 10.6396 25.7502C13.1614 26.2518 15.7752 25.9944 18.1507 25.0104C20.5261 24.0265 22.5564 22.3603 23.9849 20.2224C25.4134 18.0846 26.1758 15.5712 26.1758 13C26.1721 9.5533 24.8013 6.24882 22.3642 3.81163C19.927 1.37445 16.6225 0.00363977 13.1758 0ZM13.1758 24C11.0002 24 8.87346 23.3549 7.06451 22.1462C5.25557 20.9375 3.84568 19.2195 3.01311 17.2095C2.18055 15.1995 1.96271 12.9878 2.38715 10.854C2.81159 8.72022 3.85923 6.7602 5.39761 5.22183C6.93599 3.68345 8.896 2.6358 11.0298 2.21136C13.1636 1.78692 15.3753 2.00476 17.3853 2.83733C19.3953 3.66989 21.1133 5.07979 22.322 6.88873C23.5306 8.69767 24.1758 10.8244 24.1758 13C24.1725 15.9164 23.0125 18.7123 20.9503 20.7745C18.8881 22.8367 16.0922 23.9967 13.1758 24ZM19.1758 13C19.1758 13.2652 19.0704 13.5196 18.8829 13.7071C18.6954 13.8946 18.441 14 18.1758 14H10.5895L12.8833 16.2925C12.9762 16.3854 13.0499 16.4957 13.1002 16.6171C13.1505 16.7385 13.1763 16.8686 13.1763 17C13.1763 17.1314 13.1505 17.2615 13.1002 17.3829C13.0499 17.5043 12.9762 17.6146 12.8833 17.7075C12.7904 17.8004 12.6801 17.8741 12.5587 17.9244C12.4373 17.9747 12.3072 18.0006 12.1758 18.0006C12.0444 18.0006 11.9143 17.9747 11.7929 17.9244C11.6715 17.8741 11.5612 17.8004 11.4683 17.7075L7.46829 13.7075C7.37531 13.6146 7.30155 13.5043 7.25123 13.3829C7.2009 13.2615 7.175 13.1314 7.175 13C7.175 12.8686 7.2009 12.7385 7.25123 12.6171C7.30155 12.4957 7.37531 12.3854 7.46829 12.2925L11.4683 8.2925C11.6559 8.10486 11.9104 7.99944 12.1758 7.99944C12.4412 7.99944 12.6956 8.10486 12.8833 8.2925C13.0709 8.48014 13.1763 8.73464 13.1763 9C13.1763 9.26536 13.0709 9.51986 12.8833 9.7075L10.5895 12H18.1758C18.441 12 18.6954 12.1054 18.8829 12.2929C19.0704 12.4804 19.1758 12.7348 19.1758 13Z" fill="#000517"/>
</svg>
