<svg width="27" height="26" viewBox="0 0 27 26" fill="none" xmlns="http://www.w3.org/2000/svg">
<path d="M13.1758 0C10.6046 0 8.09121 0.762437 5.95337 2.1909C3.81553 3.61935 2.14929 5.64968 1.16535 8.02512C0.181414 10.4006 -0.0760294 13.0144 0.425578 15.5362C0.927186 18.0579 2.16532 20.3743 3.9834 22.1924C5.80148 24.0105 8.11786 25.2486 10.6396 25.7502C13.1614 26.2518 15.7752 25.9944 18.1507 25.0104C20.5261 24.0265 22.5564 22.3603 23.9849 20.2224C25.4134 18.0846 26.1758 15.5712 26.1758 13C26.1721 9.5533 24.8013 6.24882 22.3642 3.81163C19.927 1.37445 16.6225 0.00363977 13.1758 0ZM13.1758 24C11.0002 24 8.87346 23.3549 7.06451 22.1462C5.25557 20.9375 3.84568 19.2195 3.01311 17.2095C2.18055 15.1995 1.96271 12.9878 2.38715 10.854C2.81159 8.72022 3.85923 6.7602 5.39761 5.22183C6.93599 3.68345 8.896 2.6358 11.0298 2.21136C13.1636 1.78692 15.3753 2.00476 17.3853 2.83733C19.3953 3.66989 21.1133 5.07979 22.322 6.88873C23.5306 8.69767 24.1758 10.8244 24.1758 13C24.1725 15.9164 23.0125 18.7123 20.9503 20.7745C18.8881 22.8367 16.0922 23.9967 13.1758 24ZM18.8833 12.2925C18.9763 12.3854 19.05 12.4957 19.1003 12.6171C19.1507 12.7385 19.1766 12.8686 19.1766 13C19.1766 13.1314 19.1507 13.2615 19.1003 13.3829C19.05 13.5043 18.9763 13.6146 18.8833 13.7075L14.8833 17.7075C14.6956 17.8951 14.4412 18.0006 14.1758 18.0006C13.9104 18.0006 13.6559 17.8951 13.4683 17.7075C13.2806 17.5199 13.1752 17.2654 13.1752 17C13.1752 16.7346 13.2806 16.4801 13.4683 16.2925L15.762 14H8.17579C7.91057 14 7.65622 13.8946 7.46868 13.7071C7.28114 13.5196 7.17579 13.2652 7.17579 13C7.17579 12.7348 7.28114 12.4804 7.46868 12.2929C7.65622 12.1054 7.91057 12 8.17579 12H15.762L13.4683 9.7075C13.2806 9.51986 13.1752 9.26536 13.1752 9C13.1752 8.73464 13.2806 8.48014 13.4683 8.2925C13.6559 8.10486 13.9104 7.99944 14.1758 7.99944C14.4412 7.99944 14.6956 8.10486 14.8833 8.2925L18.8833 12.2925Z" fill="#000517"/>
</svg>
