<svg width="22" height="22" viewBox="0 0 22 22" fill="none" xmlns="http://www.w3.org/2000/svg">
<path d="M8.0001 18.5C8.0001 18.6989 7.92108 18.8896 7.78043 19.0303C7.63977 19.1709 7.44901 19.25 7.2501 19.25H2.7501C2.35525 19.2497 1.96743 19.1456 1.62558 18.948C1.28372 18.7504 0.999882 18.4664 0.802565 18.1244C0.605249 17.7824 0.501405 17.3944 0.501465 16.9996C0.501525 16.6048 0.605487 16.2169 0.802908 15.875L4.0176 10.3203L2.70041 10.6718C2.60499 10.6973 2.5055 10.7038 2.40759 10.6908C2.30969 10.6778 2.2153 10.6457 2.12981 10.5962C1.95716 10.4964 1.83125 10.332 1.77978 10.1393C1.72831 9.94663 1.7555 9.74138 1.85537 9.56873C1.95523 9.39608 2.11959 9.27017 2.31228 9.2187L5.38447 8.39651C5.47964 8.371 5.5789 8.36448 5.67659 8.37735C5.77427 8.39021 5.86847 8.42219 5.95379 8.47147C6.03911 8.52074 6.11388 8.58635 6.17384 8.66454C6.2338 8.74272 6.27776 8.83195 6.30322 8.92714L7.12728 11.9993C7.15331 12.0949 7.16014 12.1947 7.14737 12.293C7.1346 12.3913 7.10249 12.486 7.05289 12.5718C7.00329 12.6576 6.93718 12.7327 6.85839 12.7927C6.7796 12.8528 6.68969 12.8967 6.59385 12.9218C6.53016 12.9384 6.46465 12.9469 6.39884 12.9471C6.23386 12.947 6.07352 12.8924 5.94268 12.7919C5.81184 12.6914 5.71779 12.5506 5.67509 12.3912L5.31885 11.0646L2.10416 16.625C2.03848 16.7387 2.00383 16.8677 2.00367 16.9991C2.00351 17.1304 2.03786 17.2595 2.10326 17.3734C2.16866 17.4873 2.26283 17.582 2.37635 17.6481C2.48987 17.7142 2.61875 17.7493 2.7501 17.75H7.2501C7.44901 17.75 7.63977 17.829 7.78043 17.9696C7.92108 18.1103 8.0001 18.301 8.0001 18.5ZM21.1935 15.875L19.0242 12.125C18.9204 11.9617 18.7575 11.8449 18.5697 11.7988C18.3818 11.7528 18.1834 11.7812 18.0159 11.878C17.8484 11.9748 17.7248 12.1326 17.6709 12.3183C17.617 12.5041 17.637 12.7035 17.7267 12.875L19.896 16.625C19.9617 16.7387 19.9964 16.8677 19.9965 16.9991C19.9967 17.1304 19.9623 17.2595 19.8969 17.3734C19.8315 17.4873 19.7374 17.582 19.6238 17.6481C19.5103 17.7142 19.3814 17.7493 19.2501 17.75H12.8104L13.7798 16.7806C13.9205 16.64 13.9996 16.4492 13.9997 16.2503C13.9998 16.0513 13.9209 15.8605 13.7803 15.7198C13.6396 15.5791 13.4489 15.5 13.25 15.4999C13.051 15.4998 12.8602 15.5787 12.7195 15.7193L10.4695 17.9693C10.3997 18.039 10.3444 18.1217 10.3067 18.2127C10.2689 18.3038 10.2495 18.4014 10.2495 18.5C10.2495 18.5985 10.2689 18.6961 10.3067 18.7872C10.3444 18.8782 10.3997 18.9609 10.4695 19.0306L12.7195 21.2806C12.7892 21.3502 12.8719 21.4054 12.9629 21.4431C13.0539 21.4807 13.1515 21.5001 13.25 21.5C13.3485 21.5 13.446 21.4805 13.537 21.4428C13.628 21.4051 13.7106 21.3498 13.7803 21.2801C13.8499 21.2104 13.9051 21.1277 13.9427 21.0367C13.9804 20.9457 13.9998 20.8481 13.9997 20.7496C13.9997 20.6511 13.9802 20.5536 13.9425 20.4626C13.9048 20.3716 13.8495 20.2889 13.7798 20.2193L12.8104 19.25H19.2501C19.6449 19.2497 20.0328 19.1456 20.3746 18.948C20.7165 18.7504 21.0003 18.4664 21.1976 18.1244C21.3949 17.7824 21.4988 17.3944 21.4987 16.9996C21.4987 16.6048 21.3947 16.2169 21.1973 15.875H21.1935ZM11.0001 1.99995C11.1319 1.99863 11.2616 2.03273 11.3758 2.0987C11.4899 2.16467 11.5842 2.26007 11.6488 2.37495L14.8635 7.92964L13.5435 7.57526C13.3538 7.53072 13.1541 7.56181 12.9869 7.66195C12.8196 7.7621 12.6979 7.92342 12.6476 8.11173C12.5973 8.30005 12.6222 8.50057 12.7172 8.67081C12.8121 8.84104 12.9697 8.96761 13.1563 9.0237L16.2295 9.84776C16.2928 9.8644 16.358 9.87291 16.4235 9.87308C16.5885 9.87292 16.7489 9.81836 16.8797 9.71786C17.0105 9.61735 17.1046 9.47651 17.1473 9.31714L17.9713 6.24308C17.9996 6.1471 18.0084 6.04643 17.9972 5.947C17.986 5.84757 17.955 5.75139 17.9061 5.66412C17.8571 5.57685 17.7912 5.50026 17.7122 5.43886C17.6332 5.37745 17.5427 5.33248 17.4461 5.30658C17.3494 5.28068 17.2486 5.27438 17.1494 5.28806C17.0503 5.30173 16.9549 5.3351 16.8689 5.3862C16.7829 5.43731 16.708 5.5051 16.6485 5.58561C16.5891 5.66611 16.5464 5.75769 16.5229 5.85495L16.1667 7.18339L12.9473 1.62495C12.7496 1.28355 12.4657 1.00012 12.1239 0.803078C11.7821 0.606039 11.3946 0.502319 11.0001 0.502319C10.6056 0.502319 10.218 0.606039 9.87628 0.803078C9.53452 1.00012 9.25057 1.28355 9.05291 1.62495L6.88166 5.37495C6.78837 5.54675 6.76585 5.74818 6.81889 5.93634C6.87193 6.1245 6.99634 6.28451 7.16562 6.38229C7.33491 6.48007 7.53568 6.50789 7.72517 6.45982C7.91466 6.41176 8.07789 6.2916 8.1801 6.12495L10.3513 2.37495C10.416 2.26007 10.5103 2.16467 10.6244 2.0987C10.7385 2.03273 10.8683 1.99863 11.0001 1.99995Z" fill="#F07845"/>
</svg>
