<svg width="18" height="18" viewBox="0 0 18 18" fill="none" xmlns="http://www.w3.org/2000/svg">
<path d="M14.7806 3.21932C14.711 3.14959 14.6283 3.09427 14.5372 3.05653C14.4462 3.01878 14.3486 2.99936 14.25 2.99936C14.1514 2.99936 14.0538 3.01878 13.9628 3.05653C13.8717 3.09427 13.789 3.14959 13.7194 3.21932L10.9397 5.99995H7.06031L4.28063 3.21932C4.1399 3.07859 3.94902 2.99953 3.75 2.99953C3.55098 2.99953 3.36011 3.07859 3.21938 3.21932C3.07865 3.36005 2.99958 3.55092 2.99958 3.74995C2.99958 3.94897 3.07864 4.13984 3.21938 4.28057L6 7.06026V10.9396L3.21938 13.7193C3.07864 13.8601 2.99958 14.0509 2.99958 14.2499C2.99958 14.449 3.07864 14.6398 3.21938 14.7806C3.36011 14.9213 3.55098 15.0004 3.75 15.0004C3.94902 15.0004 4.1399 14.9213 4.28063 14.7806L7.06031 11.9999H10.9397L13.7194 14.7806C13.7891 14.8503 13.8718 14.9055 13.9628 14.9432C14.0539 14.981 14.1515 15.0004 14.25 15.0004C14.3485 15.0004 14.4461 14.981 14.5372 14.9432C14.6282 14.9055 14.7109 14.8503 14.7806 14.7806C14.8503 14.7109 14.9056 14.6282 14.9433 14.5371C14.981 14.4461 15.0004 14.3485 15.0004 14.2499C15.0004 14.1514 14.981 14.0538 14.9433 13.9628C14.9056 13.8717 14.8503 13.789 14.7806 13.7193L12 10.9396V7.06026L14.7806 4.28057C14.8504 4.21092 14.9057 4.1282 14.9434 4.03715C14.9812 3.9461 15.0006 3.84851 15.0006 3.74995C15.0006 3.65138 14.9812 3.55379 14.9434 3.46274C14.9057 3.37169 14.8504 3.28898 14.7806 3.21932ZM7.5 7.49995H10.5V10.4999H7.5V7.49995ZM9.98531 2.74963C10.2178 2.09287 10.6128 1.50569 11.1335 1.04286C11.6543 0.580028 12.2837 0.256627 12.9632 0.102822C13.6427 -0.0509828 14.3501 -0.0301794 15.0194 0.163291C15.6887 0.356762 16.2981 0.716597 16.7907 1.20923C17.2833 1.70186 17.6432 2.31125 17.8367 2.98053C18.0301 3.64982 18.0509 4.3572 17.8971 5.0367C17.7433 5.7162 17.4199 6.34568 16.9571 6.86641C16.4943 7.38714 15.9071 7.78217 15.2503 8.01463C15.1703 8.04499 15.0856 8.06117 15 8.06245C14.8232 8.06237 14.6521 7.99981 14.5169 7.88581C14.3817 7.77182 14.2911 7.61373 14.2612 7.43945C14.2312 7.26517 14.2638 7.08591 14.3532 6.93334C14.4426 6.78076 14.583 6.66467 14.7497 6.60557C15.1676 6.4576 15.5412 6.2062 15.8357 5.87482C16.1302 5.54344 16.3359 5.14287 16.4338 4.71048C16.5316 4.27809 16.5184 3.82796 16.3953 3.40208C16.2721 2.97619 16.0432 2.58843 15.7297 2.27495C15.4162 1.96148 15.0284 1.7325 14.6026 1.60938C14.1767 1.48625 13.7265 1.473 13.2942 1.57084C12.8618 1.66869 12.4612 1.87445 12.1298 2.16894C11.7984 2.46343 11.547 2.83705 11.3991 3.25495C11.3675 3.34939 11.3174 3.4366 11.2517 3.51148C11.186 3.58636 11.1061 3.64741 11.0166 3.69107C10.9271 3.73473 10.8298 3.76012 10.7303 3.76577C10.6309 3.77141 10.5313 3.7572 10.4375 3.72396C10.3436 3.69071 10.2573 3.6391 10.1835 3.57214C10.1098 3.50518 10.0502 3.4242 10.0081 3.33394C9.966 3.24368 9.94231 3.14594 9.9384 3.04642C9.93449 2.94691 9.95043 2.84761 9.98531 2.75432V2.74963ZM18 13.8749C18.0005 14.8483 17.6567 15.7906 17.0295 16.5349C16.4023 17.2793 15.532 17.7779 14.5726 17.9425C13.6133 18.1072 12.6266 17.9272 11.7871 17.4345C10.9476 16.9418 10.3094 16.1681 9.98531 15.2503C9.92292 15.0638 9.93626 14.8602 10.0225 14.6835C10.1087 14.5068 10.2608 14.3709 10.4462 14.3053C10.6316 14.2397 10.8353 14.2495 11.0135 14.3326C11.1917 14.4157 11.3302 14.5654 11.3991 14.7496C11.547 15.1675 11.7984 15.5412 12.1298 15.8356C12.4612 16.1301 12.8618 16.3359 13.2942 16.4337C13.7265 16.5316 14.1767 16.5183 14.6026 16.3952C15.0284 16.2721 15.4162 16.0431 15.7297 15.7296C16.0432 15.4162 16.2721 15.0284 16.3953 14.6025C16.5184 14.1766 16.5316 13.7265 16.4338 13.2941C16.3359 12.8617 16.1302 12.4611 15.8357 12.1298C15.5412 11.7984 15.1676 11.547 14.7497 11.399C14.5655 11.3301 14.4157 11.1917 14.3326 11.0135C14.2495 10.8353 14.2397 10.6315 14.3054 10.4462C14.371 10.2608 14.5068 10.1086 14.6836 10.0224C14.8603 9.93621 15.0638 9.92286 15.2503 9.98526C16.0541 10.2705 16.7498 10.7975 17.2421 11.4939C17.7345 12.1904 17.9992 13.0221 18 13.8749ZM8.01469 15.2503C7.78222 15.907 7.3872 16.4942 6.86646 16.957C6.34573 17.4199 5.71626 17.7433 5.03676 17.8971C4.35726 18.0509 3.64987 18.0301 2.98059 17.8366C2.3113 17.6431 1.70192 17.2833 1.20928 16.7907C0.716651 16.298 0.356817 15.6886 0.163346 15.0194C-0.0301249 14.3501 -0.0509283 13.6427 0.102876 12.9632C0.256681 12.2837 0.580083 11.6542 1.04291 11.1335C1.50575 10.6128 2.09293 10.2177 2.74969 9.98526C2.93617 9.92286 3.1397 9.93621 3.31644 10.0224C3.49319 10.1086 3.629 10.2608 3.69464 10.4462C3.76028 10.6315 3.7505 10.8353 3.66739 11.0135C3.58428 11.1917 3.4345 11.3301 3.25031 11.399C2.83241 11.547 2.4588 11.7984 2.16431 12.1298C1.86982 12.4611 1.66406 12.8617 1.56621 13.2941C1.46836 13.7265 1.48162 14.1766 1.60474 14.6025C1.72786 15.0284 1.95684 15.4162 2.27032 15.7296C2.5838 16.0431 2.97156 16.2721 3.39744 16.3952C3.82333 16.5183 4.27346 16.5316 4.70585 16.4337C5.13824 16.3359 5.5388 16.1301 5.87019 15.8356C6.20157 15.5412 6.45297 15.1675 6.60094 14.7496C6.6698 14.5654 6.80826 14.4157 6.98648 14.3326C7.1647 14.2495 7.36843 14.2397 7.55379 14.3053C7.73916 14.3709 7.89133 14.5068 7.97754 14.6835C8.06374 14.8602 8.07708 15.0638 8.01469 15.2503ZM4.91479e-07 4.12495C-0.000474457 3.15155 0.343294 2.20934 0.97051 1.46496C1.59773 0.720579 2.46798 0.221985 3.42735 0.0573571C4.38673 -0.107271 5.37341 0.0726747 6.21291 0.56537C7.05241 1.05806 7.69062 1.83176 8.01469 2.74963C8.04957 2.84292 8.06551 2.94222 8.0616 3.04174C8.05769 3.14125 8.034 3.23899 7.99191 3.32925C7.94982 3.41952 7.89018 3.50049 7.81645 3.56745C7.74273 3.63442 7.65641 3.68603 7.56253 3.71927C7.46865 3.75251 7.36909 3.76673 7.26966 3.76108C7.17023 3.75543 7.07291 3.73004 6.9834 3.68638C6.89389 3.64272 6.81396 3.58167 6.7483 3.50679C6.68263 3.43191 6.63254 3.34471 6.60094 3.25026C6.45297 2.83236 6.20157 2.45874 5.87019 2.16425C5.5388 1.86977 5.13824 1.664 4.70585 1.56616C4.27346 1.46831 3.82333 1.48157 3.39744 1.60469C2.97156 1.72781 2.5838 1.95679 2.27032 2.27027C1.95684 2.58374 1.72786 2.97151 1.60474 3.39739C1.48162 3.82327 1.46836 4.2734 1.56621 4.70579C1.66406 5.13819 1.86982 5.53875 2.16431 5.87013C2.4588 6.20151 2.83241 6.45291 3.25031 6.60088C3.42046 6.65746 3.56471 6.77313 3.65692 6.92692C3.74912 7.0807 3.78317 7.26244 3.7529 7.43918C3.72263 7.61591 3.63005 7.77596 3.49192 7.8903C3.3538 8.00464 3.17928 8.06571 3 8.06245C2.9147 8.06267 2.83 8.04808 2.74969 8.01932C1.94519 7.7338 1.24888 7.20608 0.756502 6.50873C0.264122 5.81137 -0.000156736 4.97861 4.91479e-07 4.12495Z" fill="#F07845"/>
</svg>
