<svg width="24" height="20" viewBox="0 0 24 20" fill="none" xmlns="http://www.w3.org/2000/svg">
<path d="M22.5 18.6876H20.8125V8.00006C20.8125 7.65196 20.6742 7.31812 20.4281 7.07198C20.1819 6.82584 19.8481 6.68756 19.5 6.68756H13.3125V2.00006C13.3124 1.7625 13.2478 1.52943 13.1257 1.32569C13.0035 1.12195 12.8284 0.955181 12.6189 0.843171C12.4094 0.73116 12.1734 0.678106 11.9361 0.689665C11.6989 0.701225 11.4692 0.776964 11.2716 0.908807L3.77156 5.90849C3.59183 6.02841 3.44449 6.19084 3.3426 6.38136C3.24071 6.57189 3.18744 6.78462 3.1875 7.00068V18.6876H1.5C1.35082 18.6876 1.20774 18.7468 1.10225 18.8523C0.996763 18.9578 0.9375 19.1009 0.9375 19.2501C0.9375 19.3992 0.996763 19.5423 1.10225 19.6478C1.20774 19.7533 1.35082 19.8126 1.5 19.8126H22.5C22.6492 19.8126 22.7923 19.7533 22.8977 19.6478C23.0032 19.5423 23.0625 19.3992 23.0625 19.2501C23.0625 19.1009 23.0032 18.9578 22.8977 18.8523C22.7923 18.7468 22.6492 18.6876 22.5 18.6876ZM19.5 7.81256C19.5497 7.81256 19.5974 7.83231 19.6326 7.86747C19.6677 7.90264 19.6875 7.95033 19.6875 8.00006V18.6876H13.3125V7.81256H19.5ZM4.3125 7.00068C4.31256 6.96988 4.3202 6.93958 4.33475 6.91243C4.3493 6.88529 4.37032 6.86215 4.39594 6.84506L11.8959 1.84443C11.9241 1.82561 11.9569 1.81479 11.9908 1.81313C12.0247 1.81147 12.0584 1.81902 12.0883 1.83499C12.1182 1.85096 12.1432 1.87475 12.1607 1.90381C12.1782 1.93288 12.1874 1.96614 12.1875 2.00006V18.6876H4.3125V7.00068ZM10.3125 9.50006V11.0001C10.3125 11.1492 10.2532 11.2923 10.1477 11.3978C10.0423 11.5033 9.89918 11.5626 9.75 11.5626C9.60082 11.5626 9.45774 11.5033 9.35225 11.3978C9.24676 11.2923 9.1875 11.1492 9.1875 11.0001V9.50006C9.1875 9.35087 9.24676 9.2078 9.35225 9.10231C9.45774 8.99682 9.60082 8.93756 9.75 8.93756C9.89918 8.93756 10.0423 8.99682 10.1477 9.10231C10.2532 9.2078 10.3125 9.35087 10.3125 9.50006ZM7.3125 9.50006V11.0001C7.3125 11.1492 7.25324 11.2923 7.14775 11.3978C7.04226 11.5033 6.89918 11.5626 6.75 11.5626C6.60082 11.5626 6.45774 11.5033 6.35225 11.3978C6.24676 11.2923 6.1875 11.1492 6.1875 11.0001V9.50006C6.1875 9.35087 6.24676 9.2078 6.35225 9.10231C6.45774 8.99682 6.60082 8.93756 6.75 8.93756C6.89918 8.93756 7.04226 8.99682 7.14775 9.10231C7.25324 9.2078 7.3125 9.35087 7.3125 9.50006ZM7.3125 14.7501V16.2501C7.3125 16.3992 7.25324 16.5423 7.14775 16.6478C7.04226 16.7533 6.89918 16.8126 6.75 16.8126C6.60082 16.8126 6.45774 16.7533 6.35225 16.6478C6.24676 16.5423 6.1875 16.3992 6.1875 16.2501V14.7501C6.1875 14.6009 6.24676 14.4578 6.35225 14.3523C6.45774 14.2468 6.60082 14.1876 6.75 14.1876C6.89918 14.1876 7.04226 14.2468 7.14775 14.3523C7.25324 14.4578 7.3125 14.6009 7.3125 14.7501ZM10.3125 14.7501V16.2501C10.3125 16.3992 10.2532 16.5423 10.1477 16.6478C10.0423 16.7533 9.89918 16.8126 9.75 16.8126C9.60082 16.8126 9.45774 16.7533 9.35225 16.6478C9.24676 16.5423 9.1875 16.3992 9.1875 16.2501V14.7501C9.1875 14.6009 9.24676 14.4578 9.35225 14.3523C9.45774 14.2468 9.60082 14.1876 9.75 14.1876C9.89918 14.1876 10.0423 14.2468 10.1477 14.3523C10.2532 14.4578 10.3125 14.6009 10.3125 14.7501Z" fill="#F07845"/>
</svg>
