<svg width="149" height="130" viewBox="0 0 149 130" fill="none" xmlns="http://www.w3.org/2000/svg">
<path d="M127.695 76.3253C127.695 105.745 103.845 129.595 74.4251 129.595C45.0047 129.595 21.1548 105.745 21.1548 76.3253C21.1548 46.9053 55.5712 18.8536 74.4251 0C93.4388 19.0134 127.695 46.9053 127.695 76.3253Z" fill="#FDFDFF"/>
<path d="M97.5081 111.706H100.988V98.9889H106.432V101.409H112.784V111.551H114.369C104.608 122.616 90.323 129.595 74.4081 129.595C62.1589 129.595 50.8754 125.46 41.8768 118.511H49.2632V98.9889L52.439 95.8109H61.8166L65.2193 99.216V118.057H67.2609V111.551H74.0662V107.769H80.4177V110.947H82.0828V117.757H84.5009V93.9995H97.5081V111.706ZM37.0136 72.5069H37.921V115.137C32.2976 109.849 27.8236 103.352 24.9138 96.0616V70.9951H37.0136V72.5069ZM127.59 73.7191C127.648 74.5863 127.678 75.4551 127.678 76.3251C127.678 89.5381 122.868 101.627 114.902 110.937V78.2591H122.615V73.7191H127.59Z" fill="#45BDF0"/>
<path d="M124.067 44.8746C112.905 40.0097 99.7808 44.8746 99.7808 44.8746C99.7808 44.8746 112.905 49.7498 124.067 44.8746Z" fill="#45BDF0"/>
<path d="M148.828 44.8746C137.676 40.0097 124.541 44.8746 124.541 44.8746C124.541 44.8746 137.666 49.7498 148.828 44.8746Z" fill="#45BDF0"/>
<path d="M24.2867 44.8746C13.1348 40.0097 0 44.8746 0 44.8746C0 44.8746 13.1246 49.7498 24.2867 44.8746Z" fill="#45BDF0"/>
<path d="M49.0589 44.8746C37.9071 40.0097 24.7722 44.8746 24.7722 44.8746C24.7722 44.8746 37.8968 49.7498 49.0589 44.8746Z" fill="#45BDF0"/>
<path d="M24.4098 53.6643C23.5716 53.6643 22.8867 52.9796 22.8867 52.1415V44.2308C22.8867 43.3928 23.5716 42.708 24.4098 42.708C25.2479 42.708 25.9328 43.3928 25.9328 44.2308V52.1415C25.9328 52.9796 25.2479 53.6643 24.4098 53.6643Z" fill="#000517"/>
<path d="M124.199 53.6643C123.361 53.6643 122.676 52.9796 122.676 52.1415V44.2308C122.676 43.3928 123.361 42.708 124.199 42.708C125.037 42.708 125.722 43.3928 125.722 44.2308V52.1415C125.722 52.9796 125.037 53.6643 124.199 53.6643Z" fill="#000517"/>
<path d="M83.2759 50.8633C81.4871 47.5723 78.2468 45.3647 74.5261 45.3647C70.8054 45.3647 67.6469 47.5212 65.8377 50.7407L65.7661 50.71H24.5115V55.2786H36.4913C36.4913 55.2786 49.2786 55.391 60.686 60.5626C60.5122 60.5932 60.3998 60.6137 60.3998 60.6137C60.3998 60.6137 44.362 67.8906 44.362 90.7436H47.3978C47.3978 90.7436 48.0213 67.86 64.1716 62.5249C64.2533 62.4942 64.3147 62.4738 64.3862 62.4533C65.1119 62.8724 65.8275 63.3119 66.5225 63.782C68.3931 66.3882 71.2756 68.0542 74.5159 68.0542C77.7561 68.0542 80.6284 66.378 82.499 63.782C83.051 63.4141 83.6234 63.0768 84.1958 62.7395C99.7736 68.4323 100.397 90.7436 100.397 90.7436H103.433C103.433 70.0369 90.2981 62.1365 87.8347 60.8385C99.3034 55.5545 112.305 55.4319 112.305 55.4319H124.285V50.8633H83.2554H83.2759Z" fill="#000517"/>
<path d="M27.927 53.1941C27.927 55.136 26.3529 56.7099 24.4108 56.7099C22.4687 56.7099 20.8945 55.136 20.8945 53.1941C20.8945 51.2522 22.4687 49.6885 24.4108 49.6885C26.3529 49.6885 27.927 51.2624 27.927 53.1941Z" fill="#000517"/>
<path d="M127.716 53.1941C127.716 55.136 126.142 56.7099 124.2 56.7099C122.258 56.7099 120.684 55.136 120.684 53.1941C120.684 51.2522 122.258 49.6885 124.2 49.6885C126.142 49.6885 127.716 51.2624 127.716 53.1941Z" fill="#000517"/>
<path d="M70.8186 61.2886H68.897V75.6688H70.8186V61.2886Z" fill="#000517"/>
<path d="M79.9258 61.2886H78.0042V75.6688H79.9258V61.2886Z" fill="#000517"/>
<path d="M80.7629 78.2242C80.7629 81.7298 77.9213 84.5711 74.4153 84.5711C70.9093 84.5711 68.0676 81.7298 68.0676 78.2242V76.3743C68.0676 72.8687 70.9093 70.0273 74.4153 70.0273C77.9213 70.0273 80.7629 72.8687 80.7629 76.3743V78.2242Z" fill="#F07845"/>
<path d="M74.4153 75.8838C72.9127 75.8838 71.6963 77.1 71.6963 78.6024V82.803C71.6963 83.2834 71.8292 83.7127 72.0438 84.1011C72.7798 84.3974 73.5669 84.561 74.4153 84.561C75.2637 84.561 76.0507 84.3974 76.7867 84.1011C77.0013 83.7127 77.1342 83.2732 77.1342 82.803V78.6024C77.1342 77.1102 75.9178 75.8838 74.4153 75.8838Z" fill="#000517"/>
<path d="M80.6235 54.5946C80.6235 57.8243 78.0067 60.4407 74.7664 60.4407C71.5262 60.4407 68.9094 57.8243 68.9094 54.5946C68.9094 51.365 71.5262 48.7383 74.7664 48.7383C78.0067 48.7383 80.6235 51.3547 80.6235 54.5946Z" fill="#45BDF0"/>
<path d="M76.7908 64.304C76.7908 65.418 75.8913 66.3174 74.7771 66.3174C73.6629 66.3174 72.7634 65.418 72.7634 64.304C72.7634 63.1899 73.6629 62.2905 74.7771 62.2905C75.8913 62.2905 76.7908 63.1899 76.7908 64.304Z" fill="#45BDF0"/>
</svg>
