<svg width="145" height="28" viewBox="0 0 145 28" fill="none" xmlns="http://www.w3.org/2000/svg">
<path d="M36.8204 27.9998V25.2798H45.1316C45.6958 25.2798 45.9779 24.9776 45.9779 24.3731V19.7793H45.4943C45.313 20.1823 45.0309 20.5752 44.6481 20.958C44.2854 21.3207 43.7918 21.6229 43.1672 21.8647C42.5426 22.1064 41.7568 22.2273 40.8098 22.2273C39.6815 22.2273 38.674 21.9755 37.7875 21.4718C36.9009 20.9681 36.2058 20.2528 35.7021 19.326C35.1984 18.3992 34.9465 17.3011 34.9465 16.0317V7.05566H38.0595V15.7899C38.0595 17.0794 38.3819 18.0365 39.0266 18.6611C39.6714 19.2655 40.568 19.5678 41.7165 19.5678C42.9858 19.5678 44.0033 19.1446 44.769 18.2984C45.5548 17.4522 45.9477 16.2231 45.9477 14.6113V7.05566H49.0606V25.0078C49.0606 25.9145 48.7886 26.6398 48.2446 27.1838C47.7207 27.7278 46.9954 27.9998 46.0686 27.9998H36.8204Z" fill="#000517"/>
<path d="M19.3052 21.956V0.800293H22.4181V12.859H22.9017L28.7649 7.05634H32.9055L25.38 14.2795L33.1473 21.956H29.0369L22.9017 15.7604H22.4181V21.956H19.3052Z" fill="#000517"/>
<path d="M8.46804 22.3794C6.8763 22.3794 5.4659 22.0973 4.23684 21.5331C3.00777 20.969 2.04064 20.1429 1.33544 19.0549C0.650387 17.9468 0.307861 16.6069 0.307861 15.0353V14.2798H3.54171V15.0353C3.54171 16.5263 3.98498 17.6445 4.87152 18.39C5.7782 19.1355 6.97704 19.5082 8.46804 19.5082C9.97918 19.5082 11.1176 19.1959 11.8832 18.5714C12.6489 17.9266 13.0317 17.1005 13.0317 16.0931C13.0317 15.4282 12.8504 14.8842 12.4877 14.4611C12.125 14.038 11.6112 13.7055 10.9463 13.4638C10.2814 13.2018 9.48554 12.9601 8.55871 12.7384L7.44046 12.4664C6.09051 12.144 4.91181 11.7512 3.90438 11.2877C2.9171 10.8042 2.15146 10.1695 1.60745 9.38373C1.06343 8.59795 0.791427 7.59053 0.791427 6.36149C0.791427 5.11229 1.09366 4.04443 1.69811 3.15791C2.32272 2.27138 3.17904 1.58634 4.26706 1.10278C5.35508 0.619221 6.63452 0.377441 8.10537 0.377441C9.57621 0.377441 10.8859 0.629295 12.0343 1.133C13.203 1.63671 14.1197 2.3822 14.7846 3.36946C15.4495 4.35673 15.782 5.59585 15.782 7.08682V8.17483H12.5481V7.08682C12.5481 6.18015 12.3567 5.44474 11.9739 4.88059C11.6112 4.31643 11.0974 3.90339 10.4325 3.64147C9.76762 3.37954 8.9919 3.24857 8.10537 3.24857C6.81586 3.24857 5.80843 3.52058 5.08308 4.06458C4.37788 4.58844 4.02528 5.32385 4.02528 6.27082C4.02528 6.91556 4.17639 7.44949 4.47862 7.87261C4.801 8.27557 5.26441 8.60802 5.86887 8.86995C6.47333 9.13188 7.2289 9.36358 8.13559 9.56506L9.25383 9.83706C10.6239 10.1393 11.8329 10.5322 12.8806 11.0157C13.9283 11.4792 14.7544 12.1138 15.3589 12.9198C15.9633 13.7257 16.2655 14.7633 16.2655 16.0327C16.2655 17.302 15.9432 18.4102 15.2984 19.3571C14.6738 20.3041 13.7772 21.0496 12.6086 21.5936C11.44 22.1175 10.0598 22.3794 8.46804 22.3794Z" fill="#000517"/>
<path d="M104.23 8.57955C104.34 8.88324 104.628 9.08555 104.951 9.08555H106.518L104.562 9.49862L101.98 10.0442H104.76L108.364 20.0053C108.569 20.5718 108.93 21.0689 109.405 21.4391L110.161 22.0275H106.837V22.0252H105.687V22.0275H102.364L-nan -nanL102.364 22.0275C102.983 21.5449 103.23 20.7231 102.978 19.9793L102.412 18.3092H94.56L94.0568 19.7946C93.7821 20.6055 94.0507 21.5014 94.7262 22.0275L-nan -nanL94.7262 22.0275H91.4028V22.0252H90.2524V22.0275H86.929L87.6036 21.502C88.0789 21.1318 88.4399 20.6347 88.6449 20.0682L94.7123 3.2996C95.0145 2.46446 94.7423 1.52976 94.0391 0.987305L-nan -nanL94.0391 0.987305H95.5489H101.483L104.23 8.57955ZM95.9086 14.3533H101.093L98.4859 6.65136L95.9086 14.3533Z" fill="#F07845"/>
<path d="M117.88 0.6875C120.198 0.687502 122.066 1.24693 123.484 2.36575C124.903 3.4646 125.662 5.00299 125.762 6.98092H120.218C120.178 6.30163 119.928 5.77218 119.468 5.39258C119.009 4.993 118.419 4.7932 117.7 4.7932C117.081 4.7932 116.581 4.96303 116.202 5.30267C115.822 5.62234 115.632 6.09185 115.632 6.7112C115.632 7.39049 115.952 7.91994 116.591 8.29955C117.231 8.67915 118.23 9.0887 119.588 9.52823C120.947 9.98775 122.046 10.4273 122.885 10.8469C123.744 11.2664 124.483 11.8758 125.102 12.675C125.722 13.4741 126.032 14.503 126.032 15.7617C126.032 16.311 125.966 16.8373 125.836 17.3404L121.5 18.2566H125.516C125.399 18.521 125.261 18.7783 125.102 19.0283C124.503 20.0073 123.624 20.7865 122.465 21.3658C121.306 21.9452 119.938 22.2349 118.359 22.2349C116.821 22.2349 115.442 21.9852 114.224 21.4857C113.005 20.9862 112.026 20.247 111.287 19.268C110.568 18.2891 110.188 17.1103 110.148 15.7317H115.602C115.682 16.5109 115.952 17.1103 116.411 17.5299C116.871 17.9294 117.47 18.1292 118.21 18.1292C118.969 18.1292 119.568 17.9594 120.008 17.6198C120.447 17.2601 120.667 16.7706 120.667 16.1513C120.667 15.6318 120.487 15.2023 120.128 14.8627C119.788 14.523 119.358 14.2433 118.839 14.0235C118.339 13.8038 117.62 13.554 116.681 13.2743C115.323 12.8547 114.214 12.4352 113.355 12.0156C112.496 11.5961 111.756 10.9767 111.137 10.1576C110.518 9.33844 110.208 8.26957 110.208 6.95096C110.208 6.36822 110.271 5.82351 110.396 5.31687L114.037 4.54779H110.647C110.999 3.6926 111.562 2.96524 112.336 2.36575C113.754 1.24693 115.602 0.6875 117.88 0.6875Z" fill="#F07845"/>
<path d="M80.4839 1.02382C79.6126 1.61934 79.0916 2.60662 79.0916 3.66196V10.0382L77.0222 10.5555H79.0916V18.0694H85.8046V19.8319L83.5412 20.3977H85.8046V22.0252H75.9037V22.0275H72.5803L72.7349 21.9071C73.5123 21.3016 73.9669 20.3714 73.9669 19.386V3.62209C73.9669 2.5889 73.4673 1.61947 72.626 1.01983L72.5803 0.987305H80.5373L80.4839 1.02382Z" fill="#F07845"/>
<path d="M64.3438 0.987305C66.4816 0.987305 68.1499 1.47678 69.3486 2.45575C70.5674 3.43473 71.1767 4.76335 71.1767 6.44159C71.1767 7.68028 70.8471 8.70919 70.1877 9.52833C69.5484 10.3475 68.6893 10.9169 67.6104 11.2366C68.8291 11.4963 69.8081 12.1056 70.5474 13.0646C71.2866 14.0037 71.6562 15.0825 71.6562 16.3012C71.6562 18.0594 71.0369 19.4579 69.7982 20.4968C68.5794 21.5158 66.8712 22.0252 64.6735 22.0252H56.7648V22.0275H53.4414L53.6416 21.8716C54.419 21.2661 54.8736 20.3358 54.8736 19.3505V13.5727C54.8736 13.2103 54.6198 12.8973 54.2652 12.8224L52.6106 12.4728H57.9792L54.8736 11.8167V9.41807C54.8736 9.0556 54.6198 8.74262 54.2652 8.6677L53.2178 8.44644H57.9792L54.8736 7.79033V3.29211C54.8736 3.02516 54.7348 2.77742 54.5071 2.63803L53.9208 2.27906H54.8736L-nan -nanL54.8736 2.27906C54.8736 2.18819 54.8321 2.1023 54.7608 2.04588L53.4414 1.00085H54.8736V0.987305H64.3438ZM59.9983 17.8896H63.7744C64.6335 17.8896 65.2928 17.6998 65.7524 17.3202C66.2319 16.9206 66.4716 16.3512 66.4716 15.612C66.4716 14.8728 66.2218 14.2934 65.7224 13.8738C65.2429 13.4542 64.5736 13.2445 63.7145 13.2445H59.9983V17.8896ZM59.9983 9.49837H63.3548C64.194 9.49837 64.8333 9.31856 65.2728 8.95894C65.7324 8.57934 65.9621 8.02993 65.9621 7.31068C65.9621 6.59144 65.7324 6.042 65.2728 5.66239C64.8333 5.2828 64.1939 5.093 63.3548 5.093H59.9983V9.49837Z" fill="#F07845"/>
<path d="M139.019 1.92755H144.548L144.141 2.01342C143.787 2.08833 143.533 2.40131 143.533 2.76379V5.093H137.959V6.52912H135.472L137.959 7.05439V11.9296H139.099L138.331 12.39C138.1 12.5286 137.959 12.7783 137.959 13.0478V19.7586H134.578L137.959 20.4729L-nan -nanL137.959 20.4729C137.959 20.7912 138.106 21.0916 138.357 21.2872L139.307 22.0275H135.984V22.0252H134.833V22.0275H131.51L131.602 21.9557C132.379 21.3502 132.834 20.42 132.834 19.4346V13.1417C132.834 12.7792 132.58 12.4662 132.226 12.3913L130.04 11.9296H135.408L132.834 11.3856V5.093H127.26V2.85245L131.638 1.92755H127.26V0.987305H143.47L139.019 1.92755Z" fill="#F07845"/>
</svg>
